<?xml version="1.0" encoding="utf-8"?>
<?xml-stylesheet type="text/xsl" href="rss1.xsl"?>
<rss version="2.0" xmlns:atom="http://www.w3.org/2005/Atom" xmlns:content="http://purl.org/rss/1.0/modules/content/" xmlns:dc="http://purl.org/dc/elements/1.1/" xmlns:media="http://search.yahoo.com/mrss/">
<channel>
 <title>Getty</title>
 <link>http://www.gettyimg.com/</link>
 <atom:link href="http://www.gettyimg.com/" rel="self" type="application/rss+xml" />

 
                <item>
                <title><![CDATA[【Requests】[REQ AUD] - Once Upon a Time TV Show Music (QueenCordy)]]></title>
                <link><![CDATA[https://sharemania.us/threads/once-upon-a-time-tv-show-music-queencordy.223379/]]></link>
                <description><![CDATA[<article>
<blockquote class="messageText SelectQuoteContainer ugc baseHtml">
Hello,<br>
<br>
I know this is a long shot but there is a YouTube poster by the name of QueenCordy who posted the unreleased music from the TV show Once Upon a Time. QueenCordy had them uploaded via Meguploads but they are down now and one of them needs a decryption key. I tried to reach out to QueenCordy on Twitter but they restricted contacted. <img src="styles/default/xenforo/smilies/unhappy-48.png" class="mceSmilie" alt=":(" title="Frown    :("><br>
<br>
Did anyone manage to get all of this music? Can you pretty please upload it? I highly doubt QueenCordy released it in a lossless format but if you have it, that would be wonderful. <br>
<br>
<a href="https://www.youtube.com/playlist?list=PLfxf9wbRcOelvEQCE0kx-ajhttjrjW-Wt" target="_blank" class="externalLink" rel="nofollow">https://www.youtube.com/playlist?list=PLfxf9wbRcOelvEQCE0kx-ajhttjrjW-Wt</a> <br>
<a href="https://www.youtube.com/playlist?list=PLfxf9wbRcOem3lC9k7n6b_if3mg_Q7awe" target="_blank" class="externalLink" rel="nofollow">https://www.youtube.com/playlist?list=PLfxf9wbRcOem3lC9k7n6b_if3mg_Q7awe</a><br>
<a href="https://www.youtube.com/playlist?list=PLfxf9wbRcOenKzGIiynL-Nopdf9mlrwyj" target="_blank" class="externalLink" rel="nofollow">https://www.youtube.com/playlist?list=PLfxf9wbRcOenKzGIiynL-Nopdf9mlrwyj</a><br>
<a href="https://www.youtube.com/playlist?list=PLfxf9wbRcOel3pOFsCiVcfKY55AqtmyX0" target="_blank" class="externalLink" rel="nofollow">https://www.youtube.com/playlist?list=PLfxf9wbRcOel3pOFsCiVcfKY55AqtmyX0</a><br>
<a href="https://www.youtube.com/playlist?list=PLfxf9wbRcOenw3eh0G0s07MCZ_urohGVO" target="_blank" class="externalLink" rel="nofollow">https://www.youtube.com/playlist?list=PLfxf9wbRcOenw3eh0G0s07MCZ_urohGVO</a><br>
<a href="https://www.youtube.com/playlist?list=PLfxf9wbRcOel8qbnhdjmvTeL73RMxVk1X" target="_blank" class="externalLink" rel="nofollow">https://www.youtube.com/playlist?list=PLfxf9wbRcOel8qbnhdjmvTeL73RMxVk1X</a><br>
<a href="https://www.youtube.com/playlist?list=PLfxf9wbRcOenp_meHcrmGx-G6XrUz1q4l" target="_blank" class="externalLink" rel="nofollow">https://www.youtube.com/playlist?list=PLfxf9wbRcOenp_meHcrmGx-G6XrUz1q4l</a><br>
<br>
If QueenCordy sees this post by chance, please know you rock! <br>
<br>
Thank you
<div class="messageTextEndMarker">&nbsp;</div>
</blockquote>
</article>]]></description>
                <author><![CDATA[Lordfunkbox69]]></author>
                </item>

                
                <item>
                <title><![CDATA[【Apple Music】WEB-RiP - Ellie Goulding - Goodness Gracious (1080p)]]></title>
                <link><![CDATA[https://sharemania.us/threads/ellie-goulding-goodness-gracious-1080p.223381/]]></link>
                <description><![CDATA[<article>
<blockquote class="messageText SelectQuoteContainer ugc baseHtml">
<img src="https://i.imgur.com/UzqXHtn.jpg" class="bbCodeImage LbImage" alt="[​IMG]" data-url="https://i.imgur.com/UzqXHtn.jpg" style=""><br>
<br>
<div class="bbCodeBlock bbCodeCode">
<div class="type">Code:</div>
<pre>General
Complete name                  : C:\Users\asus\Desktop\Ellie Goulding - Goodness Gracious.mp4
Format                         : MPEG-4
Format profile                 : Base Media
Codec ID                       : isom (isom/iso2/avc1/mp41)
File size                      : 291 MiB
Duration                       : 3 min 54 s
Overall bit rate               : 10.4 Mb/s
Frame rate                     : 25.000 FPS
Movie name                     : Goodness Gracious
Performer                      : Ellie Goulding
Genre                          : Pop
ContentType                    : Music Video
Recorded date                  : 2013-01-01 08:00:00 UTC
Writing application            : Lavf57.29.101
Copyright                      : ℗ 2013 Polydor Ltd. (UK)

Video
ID                             : 1
Format                         : AVC
Format/Info                    : Advanced Video Codec
Format profile                 : High@L4
Format settings                : CABAC / 4 Ref Frames
Format settings, CABAC         : Yes
Format settings, Reference fra : 4 frames
Codec ID                       : avc1
Codec ID/Info                  : Advanced Video Coding
Duration                       : 3 min 54 s
Bit rate                       : 10.1 Mb/s
Width                          : 1 920 pixels
Height                         : 1 080 pixels
Display aspect ratio           : 16:9
Frame rate mode                : Constant
Frame rate                     : 25.000 FPS
Color space                    : YUV
Chroma subsampling             : 4:2:0
Bit depth                      : 8 bits
Scan type                      : Progressive
Bits/(Pixel*Frame)             : 0.196
Stream size                    : 284 MiB (98%)
Color range                    : Limited
Color primaries                : BT.709
Transfer characteristics       : BT.709
Matrix coefficients            : BT.709
Codec configuration box        : avcC

Audio
ID                             : 2
Format                         : AAC LC
Format/Info                    : Advanced Audio Codec Low Complexity
Codec ID                       : mp4a-40-2
Duration                       : 3 min 54 s
Bit rate mode                  : Constant
Bit rate                       : 244 kb/s
Channel(s)                     : 2 channels
Channel layout                 : L R
Sampling rate                  : 48.0 kHz
Frame rate                     : 46.875 FPS (1024 SPF)
Compression mode               : Lossy
Stream size                    : 6.83 MiB (2%)
Default                        : Yes
Alternate group                : 1

</pre>
</div>
<div class="bbCodeBlock bbCodeVfcHH HiddenContent">
<div class="attribution type">Hidden Content:</div>
<blockquote>You must either reply or click 'Like' to see the hidden information contained here.</blockquote>
</div>
<div class="messageTextEndMarker">&nbsp;</div>
</blockquote>
</article>]]></description>
                <author><![CDATA[vitalya3]]></author>
                </item>

                
                <item>
                <title><![CDATA[【Apple Music】WEB-RiP - Delia - Verde Imparat (1080p)]]></title>
                <link><![CDATA[https://sharemania.us/threads/delia-verde-imparat-1080p.223380/]]></link>
                <description><![CDATA[<article>
<blockquote class="messageText SelectQuoteContainer ugc baseHtml">
<img src="https://i.imgur.com/omeXSRe.jpg" class="bbCodeImage LbImage" alt="[​IMG]" data-url="https://i.imgur.com/omeXSRe.jpg" style=""><br>
<br>
<div class="bbCodeBlock bbCodeCode">
<div class="type">Code:</div>
<pre>General
Complete name                  : C:\Users\asus\Desktop\Delia - Verde Imparat.mp4
Format                         : MPEG-4
Format profile                 : Base Media
Codec ID                       : isom (isom/iso2/avc1/mp41)
File size                      : 262 MiB
Duration                       : 3 min 35 s
Overall bit rate               : 10.2 Mb/s
Frame rate                     : 25.000 FPS
Movie name                     : Verde Imparat
Performer                      : Delia
Genre                          : Pop
ContentType                    : Music Video
Recorded date                  : 2021-09-10 07:00:00 UTC
Writing application            : Lavf57.29.101
Copyright                      : ℗ 2017 Cat Music / Global Records

Video
ID                             : 1
Format                         : AVC
Format/Info                    : Advanced Video Codec
Format profile                 : High@L4
Format settings                : CABAC / 4 Ref Frames
Format settings, CABAC         : Yes
Format settings, Reference fra : 4 frames
Codec ID                       : avc1
Codec ID/Info                  : Advanced Video Coding
Duration                       : 3 min 35 s
Bit rate                       : 9 922 kb/s
Width                          : 1 920 pixels
Height                         : 912 pixels
Display aspect ratio           : 2.105
Frame rate mode                : Constant
Frame rate                     : 25.000 FPS
Color space                    : YUV
Chroma subsampling             : 4:2:0
Bit depth                      : 8 bits
Scan type                      : Progressive
Bits/(Pixel*Frame)             : 0.227
Stream size                    : 255 MiB (97%)
Color range                    : Limited
Color primaries                : BT.709
Transfer characteristics       : BT.709
Matrix coefficients            : BT.709
Codec configuration box        : avcC

Audio
ID                             : 2
Format                         : AAC LC
Format/Info                    : Advanced Audio Codec Low Complexity
Codec ID                       : mp4a-40-2
Duration                       : 3 min 35 s
Bit rate mode                  : Constant
Bit rate                       : 265 kb/s
Channel(s)                     : 2 channels
Channel layout                 : L R
Sampling rate                  : 48.0 kHz
Frame rate                     : 46.875 FPS (1024 SPF)
Compression mode               : Lossy
Stream size                    : 6.74 MiB (3%)
Default                        : Yes
Alternate group                : 1

</pre>
</div>
<div class="bbCodeBlock bbCodeVfcHH HiddenContent">
<div class="attribution type">Hidden Content:</div>
<blockquote>You must either reply or click 'Like' to see the hidden information contained here.</blockquote>
</div>
<div class="messageTextEndMarker">&nbsp;</div>
</blockquote>
</article>]]></description>
                <author><![CDATA[vitalya3]]></author>
                </item>

                </channel></rss>